<?xml version="1.0" ?><svg width="64px" height="64px" viewBox="0 0 64 64" xmlns="http://www.w3.org/2000/svg"><defs><style>.a{fill:#ffed09;}.a,.b{stroke:#d38509;}.a,.b,.c,.e{stroke-linecap:round;stroke-width:2px;}.a,.b,.e{stroke-linejoin:round;}.b,.c,.e{fill:none;}.c,.e{stroke:#1c1c1c;}.c{stroke-miterlimit:10;}.d{fill:#f5003c;}</style></defs><title/><circle class="a" cx="32" cy="32" r="20"/><line class="b" x1="32" x2="32" y1="9" y2="2"/><line class="b" x1="20.5" x2="17" y1="12.08" y2="6.02"/><line class="b" x1="12.08" x2="6.02" y1="20.5" y2="17"/><line class="b" x1="9" x2="2" y1="32" y2="32"/><line class="b" x1="12.08" x2="6.02" y1="43.5" y2="47"/><line class="b" x1="20.5" x2="17" y1="51.92" y2="57.98"/><line class="b" x1="32" x2="32" y1="55" y2="62"/><line class="b" x1="43.5" x2="47" y1="51.92" y2="57.98"/><line class="b" x1="51.92" x2="57.98" y1="43.5" y2="47"/><line class="b" x1="55" x2="62" y1="32" y2="32"/><line class="b" x1="51.92" x2="57.98" y1="20.5" y2="17"/><line class="b" x1="43.5" x2="47" y1="12.08" y2="6.02"/><path class="c" d="M22,27a2,2,0,0,1,4,0"/><path class="c" d="M38,27a2,2,0,0,1,4,0"/><ellipse class="d" cx="19.5" cy="33" rx="4.5" ry="2"/><ellipse class="d" cx="44.5" cy="33" rx="4.5" ry="2"/><path class="e" d="M39,35.8h0a6.4,6.4,0,0,1-6.4,6.4H31.4A6.4,6.4,0,0,1,25,35.8h0"/></svg>